<svg width="197" height="26" viewBox="0 0 197 26" fill="none" xmlns="http://www.w3.org/2000/svg">
<path d="M7.77588 7.25879C7.87679 7.03678 8.01807 6.86019 8.19971 6.729C8.38135 6.58773 8.58822 6.51709 8.82031 6.51709C8.90104 6.51709 9.007 6.54232 9.13818 6.59277C9.26937 6.64323 9.33496 6.72396 9.33496 6.83496C9.33496 6.91569 9.32487 6.99137 9.30469 7.06201C9.2946 7.12256 9.27946 7.20833 9.25928 7.31934C9.07764 8.17708 8.91618 9.04997 8.7749 9.93799C8.64372 10.826 8.52767 11.6989 8.42676 12.5566C8.32585 13.4144 8.24007 14.2419 8.16943 15.0391C8.10889 15.8262 8.05843 16.5578 8.01807 17.2339C7.98779 17.91 7.96257 18.5104 7.94238 19.0352C7.93229 19.5498 7.92725 19.9635 7.92725 20.2764C7.92725 20.7809 7.9222 21.2956 7.91211 21.8203C7.91211 22.3451 7.91211 22.8395 7.91211 23.3037C7.91211 23.7578 7.90706 24.1615 7.89697 24.5146C7.89697 24.8678 7.89697 25.1201 7.89697 25.2715C7.89697 25.3118 7.89697 25.3674 7.89697 25.438C7.89697 25.5086 7.88688 25.5742 7.8667 25.6348C7.84652 25.7054 7.8112 25.766 7.76074 25.8164C7.72038 25.8669 7.65983 25.8921 7.5791 25.8921C7.44792 25.8921 7.32682 25.8669 7.21582 25.8164C7.10482 25.766 6.99886 25.7054 6.89795 25.6348C6.79704 25.5742 6.69613 25.5187 6.59521 25.4683C6.50439 25.4178 6.41357 25.3926 6.32275 25.3926C6.21175 25.3926 6.12093 25.4279 6.05029 25.4985C5.97965 25.5692 5.89388 25.6045 5.79297 25.6045C5.67188 25.6045 5.57601 25.5742 5.50537 25.5137C5.43473 25.4531 5.38428 25.3774 5.354 25.2866C5.32373 25.1958 5.30355 25.0999 5.29346 24.999C5.29346 24.8981 5.29346 24.8073 5.29346 24.7266C5.29346 24.5348 5.29346 24.2321 5.29346 23.8184C5.30355 23.4046 5.31364 22.9404 5.32373 22.4258C5.34391 21.901 5.3641 21.3561 5.38428 20.791C5.40446 20.2158 5.42464 19.6759 5.44482 19.1714C5.4751 18.5861 5.51042 17.9604 5.55078 17.2944C5.60124 16.6183 5.65674 15.9473 5.71729 15.2812C5.77783 14.6152 5.83838 13.9694 5.89893 13.3438C5.96956 12.708 6.03011 12.1328 6.08057 11.6182C6.14111 11.0934 6.19157 10.6494 6.23193 10.2861C6.28239 9.92285 6.31771 9.67057 6.33789 9.5293C6.40853 9.08529 6.47917 8.70687 6.5498 8.39404C6.63053 8.08122 6.71631 7.8693 6.80713 7.7583C6.87777 7.66748 6.96354 7.58675 7.06445 7.51611C7.14518 7.45557 7.24609 7.40007 7.36719 7.34961C7.48828 7.28906 7.62451 7.25879 7.77588 7.25879ZM9.86475 4.85205C9.118 4.85205 8.35612 4.93278 7.5791 5.09424C6.80208 5.24561 6.0957 5.49788 5.45996 5.85107C4.82422 6.20426 4.29948 6.6735 3.88574 7.25879C3.4821 7.83398 3.28027 8.55046 3.28027 9.4082C3.28027 9.85221 3.33577 10.276 3.44678 10.6797C3.55778 11.0833 3.68896 11.4517 3.84033 11.7847C3.9917 12.1177 4.14307 12.4053 4.29443 12.6475C4.4458 12.8796 4.56689 13.0511 4.65771 13.1621C4.70817 13.2227 4.75358 13.2933 4.79395 13.374C4.83431 13.4548 4.85449 13.5254 4.85449 13.5859C4.85449 13.6667 4.81917 13.7373 4.74854 13.7979C4.68799 13.8584 4.57194 13.8887 4.40039 13.8887C4.1582 13.8887 3.83529 13.8079 3.43164 13.6465C3.03809 13.4749 2.64958 13.2176 2.26611 12.8745C1.89274 12.5314 1.56982 12.0924 1.29736 11.5576C1.0249 11.0228 0.888672 10.3921 0.888672 9.66553C0.888672 9.15088 0.989583 8.61605 1.19141 8.06104C1.39323 7.50602 1.68587 6.9611 2.06934 6.42627C2.46289 5.88135 2.94222 5.3667 3.50732 4.88232C4.08252 4.39795 4.7334 3.97412 5.45996 3.61084C6.19661 3.24756 7.00391 2.95996 7.88184 2.74805C8.76986 2.52604 9.72852 2.41504 10.7578 2.41504C12.1302 2.41504 13.3311 2.63704 14.3604 3.08105C15.3896 3.51497 16.2474 4.09521 16.9336 4.82178C17.6198 5.54834 18.1344 6.3859 18.4775 7.33447C18.8307 8.28304 19.0073 9.27197 19.0073 10.3013C19.0073 11.5627 18.7904 12.703 18.3564 13.7222C17.9326 14.7414 17.3171 15.6092 16.5098 16.3257C15.7025 17.0422 14.7186 17.5972 13.5581 17.9907C12.3976 18.3742 11.0858 18.5659 9.62256 18.5659C9.51156 18.5659 9.39046 18.571 9.25928 18.5811C9.13818 18.5811 9.02214 18.571 8.91113 18.5508C8.81022 18.5205 8.72445 18.4801 8.65381 18.4297C8.59326 18.3691 8.56299 18.2783 8.56299 18.1572C8.56299 18.0462 8.59326 17.9403 8.65381 17.8394C8.71436 17.7384 8.80013 17.6829 8.91113 17.6729C10.2129 17.5719 11.3078 17.3348 12.1958 16.9614C13.0838 16.5881 13.7952 16.1138 14.3301 15.5386C14.875 14.9533 15.2635 14.2822 15.4956 13.5254C15.7378 12.7585 15.8589 11.936 15.8589 11.0581C15.8589 9.94808 15.7025 8.99951 15.3896 8.2124C15.0768 7.42529 14.6479 6.78451 14.103 6.29004C13.5581 5.78548 12.9224 5.4222 12.1958 5.2002C11.4692 4.9681 10.6922 4.85205 9.86475 4.85205Z" fill="#ED1C24"/>
<path d="M33.1299 19.2168C33.1299 20.3167 32.8625 21.2451 32.3276 22.002C31.7928 22.7588 31.0107 23.334 29.9814 23.7275C28.9622 24.111 27.7109 24.3027 26.2275 24.3027C25.057 24.3027 24.0479 24.217 23.2002 24.0454C22.3626 23.884 21.5705 23.6317 20.8237 23.2886V20.2158C21.6209 20.5892 22.514 20.9121 23.5029 21.1846C24.502 21.457 25.4455 21.5933 26.3335 21.5933C27.5041 21.5933 28.3467 21.4116 28.8613 21.0483C29.376 20.675 29.6333 20.1805 29.6333 19.5649C29.6333 19.2017 29.5273 18.8787 29.3154 18.5962C29.1136 18.3035 28.7301 18.0059 28.165 17.7031C27.61 17.3903 26.7926 17.0169 25.7129 16.583C24.6533 16.1592 23.7603 15.7354 23.0337 15.3115C22.3071 14.8877 21.7572 14.3781 21.3838 13.7827C21.0104 13.1772 20.8237 12.4053 20.8237 11.4668C20.8237 9.9834 21.409 8.85824 22.5796 8.09131C23.7603 7.31429 25.3193 6.92578 27.2568 6.92578C28.2861 6.92578 29.2549 7.03174 30.1631 7.24365C31.0814 7.44548 31.9795 7.74316 32.8574 8.13672L31.7373 10.8159C30.9805 10.4829 30.2186 10.2104 29.4517 9.99854C28.6948 9.77653 27.9229 9.66553 27.1357 9.66553C26.2174 9.66553 25.5161 9.8068 25.0317 10.0894C24.5575 10.3719 24.3203 10.7756 24.3203 11.3003C24.3203 11.6938 24.4364 12.0269 24.6685 12.2993C24.9006 12.5718 25.2992 12.8442 25.8643 13.1167C26.4395 13.3892 27.2367 13.7272 28.2559 14.1309C29.2549 14.5143 30.1177 14.918 30.8442 15.3418C31.5809 15.7555 32.146 16.2651 32.5396 16.8706C32.9331 17.4761 33.1299 18.2581 33.1299 19.2168ZM40.5317 7.24365V24H36.9746V7.24365H40.5317ZM38.7759 0.825684C39.3208 0.825684 39.79 0.972005 40.1836 1.26465C40.5872 1.55729 40.7891 2.06185 40.7891 2.77832C40.7891 3.4847 40.5872 3.98926 40.1836 4.29199C39.79 4.58464 39.3208 4.73096 38.7759 4.73096C38.2108 4.73096 37.7314 4.58464 37.3379 4.29199C36.9544 3.98926 36.7627 3.4847 36.7627 2.77832C36.7627 2.06185 36.9544 1.55729 37.3379 1.26465C37.7314 0.972005 38.2108 0.825684 38.7759 0.825684ZM56.8945 19.2168C56.8945 20.3167 56.6271 21.2451 56.0923 22.002C55.5575 22.7588 54.7754 23.334 53.7461 23.7275C52.7269 24.111 51.4756 24.3027 49.9922 24.3027C48.8216 24.3027 47.8125 24.217 46.9648 24.0454C46.1273 23.884 45.3351 23.6317 44.5884 23.2886V20.2158C45.3856 20.5892 46.2786 20.9121 47.2676 21.1846C48.2666 21.457 49.2101 21.5933 50.0981 21.5933C51.2687 21.5933 52.1113 21.4116 52.626 21.0483C53.1406 20.675 53.3979 20.1805 53.3979 19.5649C53.3979 19.2017 53.292 18.8787 53.0801 18.5962C52.8783 18.3035 52.4948 18.0059 51.9297 17.7031C51.3747 17.3903 50.5573 17.0169 49.4775 16.583C48.418 16.1592 47.5249 15.7354 46.7983 15.3115C46.0718 14.8877 45.5218 14.3781 45.1484 13.7827C44.7751 13.1772 44.5884 12.4053 44.5884 11.4668C44.5884 9.9834 45.1737 8.85824 46.3442 8.09131C47.5249 7.31429 49.084 6.92578 51.0215 6.92578C52.0508 6.92578 53.0195 7.03174 53.9277 7.24365C54.846 7.44548 55.7441 7.74316 56.6221 8.13672L55.502 10.8159C54.7451 10.4829 53.9832 10.2104 53.2163 9.99854C52.4595 9.77653 51.6875 9.66553 50.9004 9.66553C49.9821 9.66553 49.2808 9.8068 48.7964 10.0894C48.3221 10.3719 48.085 10.7756 48.085 11.3003C48.085 11.6938 48.201 12.0269 48.4331 12.2993C48.6652 12.5718 49.0638 12.8442 49.6289 13.1167C50.2041 13.3892 51.0013 13.7272 52.0205 14.1309C53.0195 14.5143 53.8823 14.918 54.6089 15.3418C55.3455 15.7555 55.9106 16.2651 56.3042 16.8706C56.6978 17.4761 56.8945 18.2581 56.8945 19.2168ZM66.9756 21.4268C67.4398 21.4268 67.8989 21.3864 68.353 21.3057C68.8071 21.2148 69.2209 21.1089 69.5942 20.9878V23.6821C69.2007 23.8537 68.6911 24 68.0654 24.1211C67.4398 24.2422 66.7889 24.3027 66.1128 24.3027C65.1642 24.3027 64.3115 24.1463 63.5547 23.8335C62.7979 23.5106 62.1974 22.9606 61.7534 22.1836C61.3094 21.4066 61.0874 20.3319 61.0874 18.9595V9.95312H58.8018V8.36377L61.2539 7.10742L62.4194 3.52002H64.6597V7.24365H69.458V9.95312H64.6597V18.9141C64.6597 19.7617 64.8716 20.3924 65.2954 20.8062C65.7192 21.2199 66.2793 21.4268 66.9756 21.4268ZM79.6753 6.92578C81.1688 6.92578 82.4504 7.23356 83.52 7.84912C84.5897 8.46468 85.4121 9.33757 85.9873 10.4678C86.5625 11.598 86.8501 12.9502 86.8501 14.5244V16.4316H75.6641C75.7044 18.0563 76.1383 19.3076 76.9658 20.1855C77.8034 21.0635 78.974 21.5024 80.4775 21.5024C81.5472 21.5024 82.5059 21.4015 83.3535 21.1997C84.2113 20.9878 85.0942 20.68 86.0024 20.2764V23.1675C85.1649 23.561 84.3122 23.8486 83.4443 24.0303C82.5765 24.2119 81.5371 24.3027 80.3262 24.3027C78.6813 24.3027 77.2332 23.9849 75.9819 23.3491C74.7407 22.7033 73.7669 21.7446 73.0605 20.4731C72.3643 19.2017 72.0161 17.6224 72.0161 15.7354C72.0161 13.8584 72.334 12.264 72.9697 10.9521C73.6055 9.6403 74.4985 8.64128 75.6489 7.95508C76.7993 7.26888 78.1414 6.92578 79.6753 6.92578ZM79.6753 9.60498C78.5552 9.60498 77.647 9.96826 76.9507 10.6948C76.2645 11.4214 75.8608 12.486 75.7397 13.8887H83.3687C83.3586 13.0511 83.2173 12.3094 82.9448 11.6636C82.6825 11.0177 82.2788 10.5132 81.7339 10.1499C81.1991 9.78662 80.5129 9.60498 79.6753 9.60498ZM109.797 6.92578C111.674 6.92578 113.087 7.41016 114.036 8.37891C114.994 9.34766 115.474 10.9017 115.474 13.041V24H111.917V13.6768C111.917 12.4053 111.669 11.4466 111.175 10.8008C110.68 10.1549 109.929 9.83203 108.919 9.83203C107.507 9.83203 106.487 10.2861 105.862 11.1943C105.246 12.0924 104.938 13.3993 104.938 15.1147V24H101.381V13.6768C101.381 12.8291 101.27 12.1227 101.048 11.5576C100.836 10.9824 100.508 10.5535 100.064 10.271C99.6204 9.97835 99.0604 9.83203 98.3843 9.83203C97.4054 9.83203 96.6234 10.054 96.0381 10.498C95.4629 10.9421 95.0492 11.598 94.7969 12.4658C94.5446 13.3236 94.4185 14.3781 94.4185 15.6294V24H90.8613V7.24365H93.6313L94.1309 9.49902H94.3276C94.6707 8.91374 95.0946 8.43441 95.5991 8.06104C96.1138 7.67757 96.6839 7.39502 97.3096 7.21338C97.9352 7.02165 98.5861 6.92578 99.2622 6.92578C100.514 6.92578 101.568 7.14779 102.426 7.5918C103.284 8.02572 103.924 8.69173 104.348 9.58984H104.621C105.145 8.68164 105.877 8.01058 106.815 7.57666C107.754 7.14274 108.748 6.92578 109.797 6.92578ZM127.008 6.92578C129.127 6.92578 130.726 7.39502 131.806 8.3335C132.896 9.27197 133.441 10.7352 133.441 12.7231V24H130.913L130.232 21.6235H130.111C129.637 22.229 129.147 22.7285 128.643 23.1221C128.138 23.5156 127.553 23.8083 126.887 24C126.231 24.2018 125.429 24.3027 124.48 24.3027C123.481 24.3027 122.588 24.1211 121.801 23.7578C121.014 23.3844 120.393 22.8193 119.939 22.0625C119.485 21.3057 119.258 20.347 119.258 19.1865C119.258 17.4609 119.899 16.1642 121.18 15.2964C122.472 14.4285 124.419 13.9492 127.023 13.8584L129.929 13.7524V12.8745C129.929 11.714 129.657 10.8866 129.112 10.3921C128.577 9.89762 127.82 9.65039 126.841 9.65039C126.004 9.65039 125.191 9.77148 124.404 10.0137C123.617 10.2559 122.85 10.5535 122.104 10.9067L120.953 8.39404C121.771 7.96012 122.699 7.60693 123.738 7.33447C124.788 7.06201 125.878 6.92578 127.008 6.92578ZM129.914 15.9927L127.75 16.0684C125.973 16.1289 124.727 16.4316 124.011 16.9766C123.294 17.5215 122.936 18.2682 122.936 19.2168C122.936 20.0443 123.183 20.6497 123.678 21.0332C124.172 21.4066 124.823 21.5933 125.63 21.5933C126.861 21.5933 127.881 21.2451 128.688 20.5488C129.505 19.8424 129.914 18.8081 129.914 17.4458V15.9927ZM145.217 1.87012C148.073 1.87012 150.157 2.4554 151.469 3.62598C152.781 4.79655 153.437 6.43636 153.437 8.54541C153.437 9.50407 153.285 10.4173 152.982 11.2852C152.69 12.1429 152.205 12.9048 151.529 13.5708C150.853 14.2267 149.96 14.7464 148.85 15.1299C147.75 15.5133 146.393 15.7051 144.778 15.7051H142.417V24H138.784V1.87012H145.217ZM144.975 4.88232H142.417V12.6777H144.4C145.54 12.6777 146.509 12.5465 147.306 12.2842C148.103 12.0117 148.709 11.5828 149.123 10.9976C149.536 10.4123 149.743 9.6403 149.743 8.68164C149.743 7.40007 149.355 6.44645 148.578 5.8208C147.811 5.19515 146.61 4.88232 144.975 4.88232ZM175.824 12.7231C175.824 15.2157 175.36 17.2995 174.431 18.9746C173.503 20.6396 172.156 21.896 170.39 22.7437C168.624 23.5812 166.494 24 164.002 24H157.856V1.87012H164.668C166.959 1.87012 168.937 2.28385 170.602 3.11133C172.267 3.92871 173.553 5.14469 174.461 6.75928C175.37 8.36377 175.824 10.3517 175.824 12.7231ZM172.04 12.8291C172.04 11.0127 171.752 9.51921 171.177 8.34863C170.612 7.17806 169.774 6.31022 168.664 5.74512C167.564 5.16992 166.207 4.88232 164.592 4.88232H161.489V20.9575H164.062C166.737 20.9575 168.735 20.2764 170.057 18.9141C171.379 17.5518 172.04 15.5234 172.04 12.8291ZM197 1.87012L189.265 24H185.42L177.686 1.87012H181.409L186.071 15.7354C186.213 16.139 186.364 16.6284 186.525 17.2036C186.697 17.7788 186.853 18.359 186.995 18.9443C187.146 19.5296 187.262 20.0493 187.343 20.5034C187.424 20.0493 187.535 19.5296 187.676 18.9443C187.827 18.359 187.984 17.7788 188.145 17.2036C188.306 16.6284 188.458 16.134 188.599 15.7202L193.276 1.87012H197Z" fill="#050505"/>
</svg>
