<svg width="57" height="32" viewBox="0 0 57 32" fill="none" xmlns="http://www.w3.org/2000/svg">
<path d="M40.5272 16.2265L49.4785 7.15906C49.702 6.93206 49.8654 6.61821 49.9452 6.26218C50.0251 5.90615 50.0174 5.5261 49.9233 5.17614C49.8292 4.82617 49.6534 4.52414 49.421 4.31304C49.1886 4.10194 48.9114 3.99253 48.6289 4.0004H44.3808C44.0841 4.0003 43.7958 4.13002 43.5615 4.36907L40.5272 7.45799L29.3077 18.8471C29.0745 19.0896 28.7858 19.2215 28.4884 19.2215C28.191 19.2215 27.9023 19.0896 27.6692 18.8471L16.4497 7.45799L13.4153 4.36907C13.1782 4.12995 12.8875 4.00036 12.5885 4.0004H8.34042C8.06051 4.00102 7.78776 4.11653 7.56029 4.33077C7.33281 4.54501 7.162 4.84728 7.07174 5.19529C6.98147 5.54331 6.97626 5.91969 7.05684 6.27178C7.13742 6.62388 7.29975 6.9341 7.52115 7.15906L16.4497 16.2265L27.6692 27.6256C27.9023 27.8681 28.191 28 28.4884 28C28.7858 28 29.0745 27.8681 29.3077 27.6256L40.5272 16.2265Z" fill="#133758"/>
</svg>
